<?xml version="1.0" encoding="utf-8"?>
<!-- Generator: Adobe Illustrator 26.0.1, SVG Export Plug-In . SVG Version: 6.00 Build 0)  -->
<svg version="1.1" id="Capa_1" xmlns="http://www.w3.org/2000/svg" xmlns:xlink="http://www.w3.org/1999/xlink" x="0px" y="0px"
	 viewBox="0 0 284.8 89.6" style="enable-background:new 0 0 284.8 89.6;" xml:space="preserve">
<style type="text/css">
	.st0{opacity:0.5;}
	.st1{fill:#231F20;}
	.st2{opacity:0.5;fill:#231F20;enable-background:new    ;}
	.st3{fill:#FF6800;}
	.st4{fill:#FFFFFF;}
	.st5{fill:#FF931E;}
	.st6{fill:#026602;}
</style>
<g class="st0">
	<path class="st1" d="M8.9,79.3c-0.2-1.5-1.2-2.2-2.7-2.2c-1.2,0-2.4,0.4-2.4,1.8c0,1.3,1.7,1.5,3.3,1.9c1.7,0.4,3.3,1,3.3,3
		c0,2.3-2.2,3.1-4.1,3.1c-2.4,0-4.3-1.2-4.3-3.7h1.3c0,1.8,1.5,2.6,3,2.6c1.3,0,2.7-0.4,2.7-1.9s-1.7-1.7-3.3-2.1
		C4,81.4,2.4,80.9,2.4,79c0-2.2,1.9-3,3.8-3c2.2,0,3.8,1,3.8,3.3L8.9,79.3L8.9,79.3z"/>
	<path class="st1" d="M19,86.7c-0.2,0.1-0.5,0.2-0.9,0.2c-0.7,0-1.1-0.4-1.1-1.2c-0.7,0.8-1.6,1.2-2.7,1.2c-1.4,0-2.6-0.6-2.6-2.2
		c0-1.8,1.3-2.1,2.6-2.4c1.4-0.3,2.6-0.2,2.6-1.1c0-1.1-0.9-1.3-1.7-1.3c-1.1,0-1.9,0.3-1.9,1.5H12c0.1-1.9,1.6-2.6,3.2-2.6
		c1.4,0,2.9,0.3,2.9,2.1v3.9c0,0.6,0,0.9,0.4,0.9c0.1,0,0.2,0,0.4-0.1C19,85.7,19,86.7,19,86.7z M16.9,82.8
		c-0.5,0.4-1.5,0.4-2.3,0.5S13,83.7,13,84.7c0,0.8,0.7,1.1,1.5,1.1c1.7,0,2.4-1,2.4-1.8V82.8z"/>
	<path class="st1" d="M20,79.1h1.2v1.2l0,0c0.5-1,1.4-1.4,2.5-1.4c2,0,2.7,1.2,2.7,2.8v5h-1.3v-5.2c0-0.9-0.6-1.6-1.6-1.6
		c-1.5,0-2.3,1-2.3,2.4v4.3H20V79.1L20,79.1z"/>
	<path class="st1" d="M30.1,79.1h1.5v1.1h-1.5v4.7c0,0.6,0.2,0.7,1,0.7h0.6v1.1h-1c-1.3,0-1.8-0.3-1.8-1.7v-4.8h-1.4v-1.1h1.3v-2.3
		h1.3C30.1,76.8,30.1,79.1,30.1,79.1z"/>
	<path class="st1" d="M39.7,86.7c-0.2,0.1-0.5,0.2-0.9,0.2c-0.7,0-1.1-0.4-1.1-1.2c-0.7,0.8-1.6,1.2-2.7,1.2c-1.4,0-2.6-0.6-2.6-2.2
		c0-1.8,1.3-2.1,2.6-2.4c1.4-0.3,2.6-0.2,2.6-1.1c0-1.1-0.9-1.3-1.7-1.3c-1.1,0-1.9,0.3-1.9,1.5h-1.3c0.1-1.9,1.6-2.6,3.2-2.6
		c1.4,0,2.9,0.3,2.9,2.1v3.9c0,0.6,0,0.9,0.4,0.9c0.1,0,0.2,0,0.4-0.1L39.7,86.7L39.7,86.7z M37.6,82.8c-0.5,0.3-1.4,0.3-2.3,0.5
		c-0.8,0.1-1.6,0.4-1.6,1.4c0,0.8,0.7,1.1,1.5,1.1c1.7,0,2.4-1,2.4-1.8C37.6,84,37.6,82.8,37.6,82.8z"/>
	<path class="st1" d="M52.6,79.4c-0.3-1.5-1.5-2.3-2.9-2.3c-2.5,0-3.5,2.1-3.5,4.2c0,2.4,1.1,4.4,3.5,4.4c1.9,0,2.9-1.3,3-3h1.4
		c-0.3,2.7-1.9,4.2-4.5,4.2c-3.2,0-4.8-2.5-4.8-5.5s1.8-5.5,5-5.5c2.2,0,4,1.2,4.3,3.4C54.1,79.4,52.6,79.4,52.6,79.4z"/>
	<path class="st1" d="M55.5,79.1h1.2v1.6l0,0c0.6-1.2,1.5-1.9,2.8-1.8v1.3c-2.1,0-2.8,1.2-2.8,3v3.4h-1.3L55.5,79.1L55.5,79.1z"/>
	<path class="st1" d="M66.8,86.8h-1.2v-1.2l0,0c-0.5,1-1.4,1.4-2.5,1.4c-2,0-2.7-1.2-2.7-2.8v-5h1.3v5.2c0,0.9,0.6,1.6,1.6,1.6
		c1.5,0,2.3-1,2.3-2.4v-4.3h1.2V86.8z"/>
	<path class="st1" d="M68.1,85.8l4.6-5.6h-4.3v-1.1h5.9V80l-4.6,5.7h4.8v1.1h-6.4V85.8z"/>
	<path class="st1" d="M79.7,82h4.2v1.2h-4.2V82z"/>
	<path class="st1" d="M92.8,76.1h1.6l4.1,10.5h-1.6l-1.2-3.1h-4.4l-1.2,3.1h-1.5L92.8,76.1z M91.7,82.3h3.6l-1.8-4.9l0,0L91.7,82.3z
		"/>
	<path class="st1" d="M99.3,79.1h1.2v1.6l0,0c0.6-1.2,1.5-1.9,2.8-1.8v1.3c-2.1,0-2.8,1.2-2.8,3v3.4h-1.2V79.1z"/>
	<path class="st1" d="M110.4,86.1c0,2.5-1.2,3.7-3.5,3.7c-1.5,0-3-0.6-3.1-2.3h1.3c0.1,0.9,1.2,1.3,2,1.3c1.7,0,2.3-1.2,2.3-2.9
		v-0.5l0,0c-0.4,0.9-1.4,1.4-2.4,1.4c-2.3,0-3.4-1.8-3.4-3.8c0-1.8,0.9-4,3.5-4c1,0,1.8,0.4,2.3,1.3l0,0v-1.1h1.2
		C110.4,79.2,110.4,86.1,110.4,86.1z M109.1,82.7c0-1.4-0.6-2.8-2.2-2.8s-2.3,1.3-2.3,2.8c0,1.4,0.5,2.9,2.2,2.9
		C108.5,85.7,109.1,84.2,109.1,82.7z"/>
	<path class="st1" d="M118.7,84.3c-0.3,1.7-1.6,2.6-3.2,2.6c-2.5,0-3.5-1.7-3.6-4c0-2.3,1.5-3.9,3.5-3.9c2.7,0,3.5,2.6,3.4,4.3h-5.7
		c0,1.4,0.7,2.5,2.4,2.5c1.1,0,1.8-0.5,2-1.5H118.7L118.7,84.3z M117.6,82.1c-0.1-1.2-1-2.2-2.2-2.2c-1.3,0-2.1,1-2.2,2.2H117.6z"/>
	<path class="st1" d="M120.1,79.1h1.2v1.2l0,0c0.5-1,1.4-1.4,2.5-1.4c2,0,2.7,1.2,2.7,2.8v5h-1.3v-5.2c0-0.9-0.6-1.6-1.6-1.6
		c-1.5,0-2.3,1-2.3,2.4v4.3H120L120.1,79.1L120.1,79.1z"/>
	<path class="st1" d="M130.1,79.1h1.5v1.1h-1.5v4.7c0,0.6,0.2,0.7,1,0.7h0.6v1.1h-1c-1.3,0-1.8-0.3-1.8-1.7v-4.8h-1.3v-1.1h1.3v-2.3
		h1.3L130.1,79.1L130.1,79.1z"/>
	<path class="st1" d="M134.4,77.7h-1.3v-1.6h1.3V77.7z M133.1,79.1h1.3v7.7h-1.3V79.1z"/>
	<path class="st1" d="M136.2,79.1h1.2v1.2l0,0c0.5-1,1.4-1.4,2.5-1.4c2,0,2.7,1.2,2.7,2.8v5h-1.3v-5.2c0-0.9-0.6-1.6-1.6-1.6
		c-1.5,0-2.3,1-2.3,2.4v4.3h-1.3L136.2,79.1L136.2,79.1z"/>
	<path class="st1" d="M151.2,86.7c-0.2,0.1-0.5,0.2-0.9,0.2c-0.7,0-1.1-0.4-1.1-1.2c-0.7,0.8-1.7,1.2-2.7,1.2
		c-1.4,0-2.6-0.6-2.6-2.2c0-1.8,1.3-2.1,2.6-2.4c1.4-0.3,2.6-0.2,2.6-1.1c0-1.1-0.9-1.3-1.7-1.3c-1.1,0-1.9,0.3-1.9,1.5h-1.3
		c0.1-1.9,1.6-2.6,3.2-2.6c1.4,0,2.9,0.3,2.9,2.1v3.9c0,0.6,0,0.9,0.4,0.9c0.1,0,0.2,0,0.4-0.1v1.1H151.2z M149.2,82.8
		c-0.5,0.4-1.5,0.4-2.3,0.5s-1.6,0.4-1.6,1.4c0,0.8,0.7,1.1,1.5,1.1c1.7,0,2.4-1,2.4-1.8L149.2,82.8L149.2,82.8z"/>
</g>
<g class="st0">
	<path class="st1" d="M176.6,46.5c-0.5-0.3-1.1-0.4-1.6-0.4c0.8-0.6,1.7-1.4,2.4-2.2c2.6-3.2,1.4-6.3,1.4-6.3
		c-0.6,2.5-3.8,3.1-6.3,3c1.6-1.1,2.9-3.1,3.5-5.4c1.4-4.5-1.3-7.3-1.3-7.3c0.5,3.1-3.4,5.4-6.1,6.1c-0.6,0.2-1.1,0.5-1.4,0.8
		c0.2-1,0.2-2.1,0.1-3.1c-0.5-4.1-3.5-5.4-3.5-5.4c1.4,2.2-0.5,4.9-2.3,6.6c0.3-1.9-0.3-4.2-1.4-6.3c-2.2-4.1-6-4.2-6-4.2
		c2.6,1.9,1.4,6.2,0,8.7c-0.3,0.5-0.4,1.1-0.4,1.6c-0.6-0.9-1.4-1.7-2.2-2.4c-3.2-2.6-6.3-1.4-6.3-1.4c2.5,0.6,3.1,3.8,3,6.3
		c-1.1-1.6-3.1-2.9-5.4-3.5c-4.5-1.4-7.3,1.3-7.3,1.3c2.2-0.3,4,1.6,5.1,3.6h-7.5l-5.7,20.3h-0.1l-5.6-20.3h-10.4l10.2,30.6h11.6
		l4.7-14c0.3,0.1,0.6,0.3,0.8,0.4c0.5,0.3,1.1,0.4,1.6,0.4c-0.8,0.6-1.7,1.4-2.4,2.2c-2.6,3.2-1.4,6.3-1.4,6.3
		c0.6-2.5,3.8-3.1,6.3-3c-1.6,1.1-2.9,3.1-3.5,5.4c-1.4,4.5,1.3,7.3,1.3,7.3c-0.5-3.1,3.4-5.4,6.1-6.1c0.6-0.2,1.1-0.5,1.4-0.8
		c-0.2,1-0.2,2.1-0.1,3.1c0.5,4.1,3.5,5.4,3.5,5.4c-1.4-2.2,0.5-4.9,2.3-6.6c-0.3,1.9,0.3,4.2,1.4,6.3c2.2,4.1,6,4.2,6,4.2
		c-2.6-1.9-1.4-6.2,0-8.7c0.3-0.5,0.4-1.1,0.4-1.6c0.6,0.8,1.4,1.7,2.2,2.4c3.2,2.6,6.3,1.4,6.3,1.4c-2.5-0.6-3.1-3.8-3-6.3
		c1.1,1.6,3.1,2.9,5.4,3.5c4.5,1.4,7.3-1.3,7.3-1.3c-3.1,0.5-5.4-3.4-6.1-6.1c-0.2-0.6-0.5-1.1-0.8-1.4c1,0.2,2.1,0.2,3.1,0.1
		c4.1-0.5,5.4-3.5,5.4-3.5c-2.2,1.4-4.9-0.5-6.6-2.3c1.9,0.3,4.2-0.3,6.3-1.4c4.1-2.2,4.2-6,4.2-6C183.3,49.1,179,47.9,176.6,46.5z
		 M142.3,40.5c-0.1,0-0.3,0-0.4,0l0.1-0.4C142.1,40.3,142.2,40.4,142.3,40.5z M140,46.2l0.1-0.2c0.1,0.1,0.2,0.2,0.3,0.3
		C140.2,46.2,140.1,46.2,140,46.2z M157.3,66.8c-9.2,0-16.8-7.5-16.8-16.8c0-9.2,7.5-16.8,16.8-16.8c9.2,0,16.8,7.5,16.8,16.8
		C174.1,59.2,166.5,66.8,157.3,66.8z"/>
	<circle class="st1" cx="157.5" cy="50.1" r="15"/>
	<polygon class="st1" points="31.5,51 31.4,51 16.7,25 5.5,25 5.5,67.2 15.8,67.2 15.8,40.9 15.9,40.9 30.6,67.2 41.8,67.2 41.8,25 
		31.5,25 	"/>
	<path class="st1" d="M66.8,52.9c0,5.4-3.3,6.9-5.5,6.9c-3.1,0-4.9-1.4-4.9-5.5V36.5h-10v18.4C46.4,63,49,68,57.7,68
		c3.5,0,7.5-2,9.3-5.1h0.1v4.2h9.7V36.5h-10C66.8,36.5,66.8,52.9,66.8,52.9z"/>
	<path class="st1" d="M96.1,35.6c-9,0-16.5,6.7-16.5,16.1c0,10.2,6.8,16.3,16.7,16.3c6.9,0,13.4-3,15.2-10.1h-9.3
		c-1,2.3-3.3,3.3-5.7,3.3c-4.2,0-6.7-2.8-6.9-7h22.5C112.7,43.9,107.1,35.6,96.1,35.6z M89.6,48.7c0.6-3.7,2.9-6.3,6.5-6.3
		c3.3,0,5.8,2.9,6,6.3H89.6z"/>
	<path class="st1" d="M214.1,25H196v42.1h18.1c12.8,0,20.6-7.5,20.6-21.2C234.7,32.9,227.1,25,214.1,25z M212.1,57.8h-5.2V34.5h5.2
		c7.5,0,11.6,3.7,11.6,11.4C223.8,54.3,220.5,57.6,212.1,57.8z"/>
	<polygon class="st1" points="250.6,24.4 240,24.4 234.3,33.3 241.3,33.3 	"/>
	<rect x="238.3" y="36.5" class="st1" width="10" height="30.6"/>
	<path class="st1" d="M282.2,59.3V46c0-8.7-7-10.2-14.3-10.2c-3.4,0-7,0.6-9.7,2.2c-2.8,1.6-4.6,4.2-4.8,8.2h9.3
		c0.5-2.6,2.3-3.8,5-3.8c2.1,0,4.8,0.9,4.8,3.1c0,1.9-1,2.5-2.7,2.9c-7,1.4-17.8,0.7-17.8,10.6c0,6.3,4.6,9.2,10.4,9.2
		c3.6,0,7.5-1.1,10.1-3.7c0.1,1,0.2,2,0.6,2.9h10.1C282.2,64.7,282.2,61.9,282.2,59.3z M266.5,61.9c-2.3,0-4.2-1-4.2-3.4
		c0-2.5,1.9-3.3,4.1-3.9c2.2-0.6,4.8-0.8,6.2-1.7C272.8,59.1,271.2,61.9,266.5,61.9z"/>
</g>
<rect x="4.5" y="5.1" class="st2" width="49.4" height="13.2"/>
<g>
	<rect x="3.5" y="4.1" class="st3" width="49.4" height="13.2"/>
	<g>
		<path class="st4" d="M8,7.8h4.6V9H9.4v1h2.9v1.2H9.4v1.1h3.1v1.3H8V7.8z"/>
		<path class="st4" d="M13.5,7.8H15v4.5h2.8v1.3h-4.2L13.5,7.8L13.5,7.8z"/>
		<path class="st4" d="M20.3,7.8h2.5c1.8,0,2.9,1.1,2.9,2.9c0,1.9-1.1,2.9-2.9,2.9h-2.5V7.8z M21.8,12.2h0.7c1.2,0,1.6-0.5,1.6-1.7
			c0-1.1-0.6-1.6-1.6-1.6h-0.7V12.2z"/>
		<path class="st4" d="M26.4,7.8h1.5v5.8h-1.5V7.8z"/>
		<path class="st4" d="M30.6,7.8h1.6l2.2,5.8h-1.6l-0.4-1.1h-2L30,13.6h-1.6L30.6,7.8z M30.7,11.5H32l-0.6-2.1l0,0L30.7,11.5z"/>
		<path class="st4" d="M34.7,7.8h2.9c1,0,2.1,0.5,2.1,1.7c0,0.6-0.3,1.2-0.9,1.5l0,0c0.6,0.1,0.8,0.8,0.9,1.4c0,0.2,0,1.1,0.2,1.3
			h-1.6c-0.1-0.2-0.2-0.8-0.2-0.9c0-0.6-0.1-1.2-0.9-1.2H36v2.1h-1.5L34.7,7.8L34.7,7.8z M36.2,10.3h1.3c0.5,0,0.7-0.2,0.7-0.7
			c0-0.4-0.3-0.6-0.8-0.6h-1.2V10.3z"/>
		<path class="st4" d="M40.5,7.8H42v5.8h-1.5V7.8z"/>
		<path class="st4" d="M45.7,7.7c1.8,0,2.9,1.4,2.9,3s-1,3-2.9,3c-1.8,0-2.9-1.4-2.9-3S43.8,7.7,45.7,7.7z M45.7,12.3
			c1,0,1.4-0.9,1.4-1.7S46.7,9,45.7,9s-1.4,0.9-1.4,1.7S44.7,12.3,45.7,12.3z"/>
	</g>
</g>
<g>
	<path class="st4" d="M8.1,78.4c-0.1-1.5-1.2-2.2-2.6-2.2c-1.2,0-2.4,0.4-2.4,1.8c0,1.3,1.7,1.5,3.3,1.9c1.7,0.4,3.3,1,3.3,3
		c0,2.3-2.2,3.1-4.1,3.1c-2.4,0-4.3-1.2-4.3-3.7h1.3c0,1.8,1.5,2.6,3,2.6c1.3,0,2.7-0.4,2.7-1.9S6.6,81.3,5,80.9S1.7,80,1.7,78.1
		c0-2.2,1.9-3,3.8-3c2.2,0,3.8,1,3.8,3.3L8.1,78.4L8.1,78.4z"/>
	<path class="st4" d="M18.1,85.8c-0.2,0.1-0.5,0.2-0.9,0.2c-0.7,0-1.1-0.4-1.1-1.2c-0.7,0.8-1.6,1.2-2.7,1.2c-1.4,0-2.6-0.6-2.6-2.2
		c0-1.8,1.3-2.1,2.6-2.4c1.4-0.3,2.6-0.2,2.6-1.1c0-1.1-0.9-1.3-1.7-1.3c-1.1,0-1.9,0.3-1.9,1.5h-1.3c0.1-1.9,1.6-2.6,3.2-2.6
		c1.4,0,2.9,0.3,2.9,2.1v4c0,0.6,0,0.9,0.4,0.9c0.1,0,0.2,0,0.4-0.1C18.1,84.8,18.1,85.8,18.1,85.8z M16,81.9
		c-0.5,0.4-1.5,0.4-2.3,0.5s-1.6,0.4-1.6,1.4c0,0.8,0.7,1.1,1.5,1.1c1.7,0,2.4-1,2.4-1.8V81.9z"/>
	<path class="st4" d="M19.3,78.2h1.2v1.2l0,0c0.5-1,1.4-1.4,2.5-1.4c2,0,2.7,1.2,2.7,2.8v5h-1.3v-5.2c0-0.9-0.6-1.6-1.6-1.6
		c-1.5,0-2.3,1-2.3,2.4v4.3h-1.3L19.3,78.2L19.3,78.2z"/>
	<path class="st4" d="M29.2,78.2h1.5v1.1h-1.5v4.8c0,0.6,0.2,0.7,1,0.7h0.6v1.1h-1c-1.3,0-1.8-0.3-1.8-1.7v-4.8h-1.3v-1.2H28v-2.3
		h1.3L29.2,78.2L29.2,78.2z"/>
	<path class="st4" d="M38.8,85.8c-0.2,0.2-0.5,0.3-0.9,0.3c-0.7,0-1.1-0.4-1.1-1.2c-0.7,0.8-1.6,1.2-2.7,1.2c-1.4,0-2.6-0.6-2.6-2.2
		c0-1.8,1.3-2.1,2.6-2.4c1.4-0.3,2.6-0.2,2.6-1.1c0-1.1-0.9-1.3-1.7-1.3c-1.1,0-1.9,0.3-1.9,1.5h-1.3c0.1-1.9,1.6-2.6,3.2-2.6
		c1.4,0,2.9,0.3,2.9,2.1V84c0,0.6,0,0.9,0.4,0.9c0.1,0,0.2,0,0.4-0.1L38.8,85.8L38.8,85.8z M36.9,81.9c-0.5,0.4-1.5,0.4-2.3,0.5
		S33,82.8,33,83.8c0,0.8,0.7,1.1,1.5,1.1c1.7,0,2.4-1,2.4-1.8C36.9,83.1,36.9,81.9,36.9,81.9z"/>
	<path class="st4" d="M51.7,78.5c-0.3-1.5-1.5-2.3-2.9-2.3c-2.5,0-3.5,2.1-3.5,4.2c0,2.4,1.1,4.4,3.5,4.4c1.9,0,2.9-1.3,3-3h1.4
		c-0.3,2.7-1.9,4.2-4.5,4.2c-3.2,0-4.8-2.5-4.8-5.5s1.8-5.5,5-5.5c2.2,0,4,1.2,4.3,3.4C53.2,78.5,51.7,78.5,51.7,78.5z"/>
	<path class="st4" d="M54.8,78.2H56v1.6l0,0c0.6-1.2,1.5-1.9,2.8-1.8v1.3c-2.1,0-2.8,1.2-2.8,3v3.4h-1.3L54.8,78.2L54.8,78.2z"/>
	<path class="st4" d="M66,85.9h-1.2v-1.2l0,0c-0.5,1-1.4,1.4-2.5,1.4c-2,0-2.7-1.2-2.7-2.8v-5.1h1.3v5.2c0,0.9,0.6,1.6,1.6,1.6
		c1.5,0,2.3-1,2.3-2.4v-4.4h1.3L66,85.9L66,85.9z"/>
	<path class="st4" d="M67.2,84.9l4.6-5.6h-4.3v-1.1h5.9v0.9l-4.6,5.6h4.9v1.1h-6.4L67.2,84.9L67.2,84.9z"/>
	<path class="st4" d="M78.8,81.1H83v1.2h-4.2V81.1z"/>
	<path class="st4" d="M91.9,75.3h1.6l4.1,10.5H96l-1.2-3.1h-4.4l-1.2,3.1h-1.5L91.9,75.3z M90.9,81.4h3.5l-1.8-4.9l0,0L90.9,81.4z"
		/>
	<path class="st4" d="M98.4,78.2h1.2v1.6l0,0c0.6-1.2,1.5-1.9,2.8-1.8v1.3c-2.1,0-2.8,1.2-2.8,3v3.4h-1.3L98.4,78.2L98.4,78.2z"/>
	<path class="st4" d="M109.5,85.2c0,2.5-1.2,3.7-3.5,3.7c-1.5,0-3-0.6-3.1-2.3h1.3c0.1,0.9,1.2,1.3,2,1.3c1.7,0,2.3-1.2,2.3-2.9
		v-0.5l0,0c-0.4,0.9-1.4,1.4-2.4,1.4c-2.3,0-3.4-1.8-3.4-3.8c0-1.8,0.9-4,3.5-4c1,0,1.8,0.4,2.3,1.3l0,0v-1.2h1.2
		C109.5,78.2,109.5,85.2,109.5,85.2z M108.2,81.8c0-1.4-0.6-2.8-2.2-2.8s-2.3,1.3-2.3,2.8c0,1.4,0.5,2.9,2.2,2.9
		C107.6,84.8,108.2,83.3,108.2,81.8z"/>
	<path class="st4" d="M117.9,83.4c-0.3,1.7-1.6,2.6-3.2,2.6c-2.5,0-3.5-1.7-3.6-4c0-2.3,1.5-3.9,3.5-3.9c2.7,0,3.5,2.6,3.4,4.3h-5.7
		c0,1.4,0.7,2.5,2.4,2.5c1.1,0,1.8-0.5,2-1.5H117.9L117.9,83.4z M116.7,81.3c-0.1-1.2-1-2.2-2.2-2.2c-1.3,0-2.1,1-2.2,2.2H116.7z"/>
	<path class="st4" d="M119.3,78.2h1.2v1.2l0,0c0.5-1,1.4-1.4,2.5-1.4c2,0,2.7,1.2,2.7,2.8v5h-1.3v-5.2c0-0.9-0.6-1.6-1.6-1.6
		c-1.5,0-2.3,1-2.3,2.4v4.3h-1.3L119.3,78.2L119.3,78.2z"/>
	<path class="st4" d="M129.3,78.2h1.5v1.1h-1.5v4.8c0,0.6,0.2,0.7,1,0.7h0.6v1.1h-1c-1.3,0-1.8-0.3-1.8-1.7v-4.8h-1.3v-1.2h1.3v-2.3
		h1.3L129.3,78.2L129.3,78.2z"/>
	<path class="st4" d="M133.5,76.8h-1.3v-1.6h1.3V76.8z M132.2,78.2h1.3v7.7h-1.3V78.2z"/>
	<path class="st4" d="M135.5,78.2h1.2v1.2l0,0c0.5-1,1.4-1.4,2.5-1.4c2,0,2.7,1.2,2.7,2.8v5h-1.3v-5.2c0-0.9-0.6-1.6-1.6-1.6
		c-1.5,0-2.3,1-2.3,2.4v4.3h-1.3L135.5,78.2L135.5,78.2z"/>
	<path class="st4" d="M150.4,85.8c-0.2,0.1-0.5,0.2-0.9,0.2c-0.7,0-1.1-0.4-1.1-1.2c-0.7,0.8-1.7,1.2-2.7,1.2
		c-1.4,0-2.6-0.6-2.6-2.2c0-1.8,1.3-2.1,2.6-2.4c1.4-0.3,2.6-0.2,2.6-1.1c0-1.1-0.9-1.3-1.7-1.3c-1.1,0-1.9,0.3-1.9,1.5h-1.3
		c0.1-1.9,1.6-2.6,3.2-2.6c1.4,0,2.9,0.3,2.9,2.1v4c0,0.6,0,0.9,0.4,0.9c0.1,0,0.2,0,0.4-0.1L150.4,85.8L150.4,85.8z M148.3,81.9
		c-0.5,0.4-1.5,0.4-2.3,0.5s-1.6,0.4-1.6,1.4c0,0.8,0.7,1.1,1.5,1.1c1.7,0,2.4-1,2.4-1.8L148.3,81.9L148.3,81.9z"/>
</g>
<g>
	<path class="st5" d="M179.8,52c4.3-1.9,4.6-5.7,4.6-5.7c-2,2.4-6.3,1-8.6-0.5c-0.5-0.3-1.1-0.5-1.5-0.5c0.8-0.5,1.8-1.3,2.5-2
		c2.8-3.1,1.8-6.2,1.8-6.2c-0.7,2.4-4,2.9-6.5,2.7c1.6-1,3-3,3.9-5.2c1.7-4.4-0.8-7.3-0.8-7.3c0.3,3.2-3.8,5.2-6.5,5.7
		c-0.6,0.2-1.1,0.4-1.4,0.7c0.3-1,0.3-2,0.3-3.1c-0.2-4.2-3.2-5.6-3.2-5.6c1.2,2.2-0.8,4.9-2.7,6.4c0.4-1.8,0-4.2-1-6.4
		c-1.9-4.3-5.7-4.6-5.7-4.6c2.4,2,1,6.3-0.5,8.6c-0.3,0.5-0.5,1.1-0.5,1.5c-0.5-0.9-1.3-1.8-2-2.5c-3.1-2.8-6.2-1.8-6.2-1.8
		c2.4,0.7,2.9,4,2.7,6.5c-1-1.6-3-3-5.2-3.9c-4.4-1.7-7.3,0.8-7.3,0.8c3.2-0.3,5.2,3.8,5.7,6.5c0.2,0.6,0.4,1.1,0.7,1.4
		c-1-0.3-2-0.3-3.1-0.3c-4.2,0.2-5.6,3.2-5.6,3.2c2.2-1.1,4.9,0.8,6.4,2.7c-1.8-0.4-4.2,0-6.4,1c-4.3,1.9-4.6,5.7-4.6,5.7
		c2-2.4,6.3-1,8.6,0.5c0.5,0.3,1.1,0.5,1.5,0.5c-0.8,0.5-1.8,1.3-2.5,2c-2.8,3.1-1.8,6.2-1.8,6.2c0.7-2.4,4-2.9,6.5-2.7
		c-1.6,1-3,3-3.9,5.2c-1.7,4.4,0.8,7.3,0.8,7.3c-0.3-3.2,3.8-5.2,6.5-5.7c0.6-0.2,1.1-0.4,1.4-0.7c-0.3,1-0.3,2-0.3,3.1
		c0.2,4.2,3.2,5.6,3.2,5.6c-1.2-2.2,0.8-4.9,2.7-6.4c-0.4,1.8,0,4.2,1,6.4c1.9,4.3,5.7,4.6,5.7,4.6c-2.4-2-1-6.3,0.5-8.6
		c0.3-0.5,0.5-1.1,0.5-1.5c0.5,0.8,1.3,1.8,2,2.5c3.1,2.8,6.2,1.8,6.2,1.8c-2.4-0.7-2.9-4-2.7-6.5c1,1.6,3,3,5.2,3.9
		c4.4,1.7,7.3-0.8,7.3-0.8c-3.2,0.3-5.2-3.8-5.7-6.5c-0.2-0.6-0.4-1.1-0.7-1.4c1,0.3,2,0.3,3.1,0.3c4.2-0.2,5.6-3.2,5.6-3.2
		c-2.2,1.2-4.9-0.8-6.4-2.7C175.3,53.5,177.7,53.1,179.8,52z M155.3,64.8c-9.2-0.6-16.3-8.5-15.7-17.8c0.6-9.2,8.5-16.3,17.8-15.7
		c9.2,0.6,16.3,8.5,15.7,17.8C172.5,58.3,164.5,65.4,155.3,64.8z"/>
	<g>
		<path class="st5" d="M171.5,49c0.5-8.3-5.8-15.4-14.1-15.9s-15.4,5.8-15.9,14.1C150.9,57.9,162.1,38.3,171.5,49z"/>
		<path class="st6" d="M155.6,63.1c8.3,0.5,15.4-5.8,15.9-14.1c-9.4-10.7-20.6,8.9-30-1.9C141,55.4,147.3,62.6,155.6,63.1z"/>
	</g>
</g>
<path class="st4" d="M3.5,23.1h11.2l14.6,26h0.1v-26h10.3v42.1H28.6L14,39h-0.1v26.2H3.5V23.1z"/>
<path class="st4" d="M74.9,65.2h-9.7V61h-0.1c-1.9,3.1-5.8,5.1-9.3,5.1C47,66.1,44.4,61,44.4,53V34.6h10v17.8c0,4,1.8,5.5,4.9,5.5
	c2.2,0,5.5-1.4,5.5-6.9V34.6h10L74.9,65.2L74.9,65.2z"/>
<path class="st4" d="M87.7,52.3c0.2,4.2,2.6,7,6.9,7c2.5,0,4.8-1.1,5.7-3.3h9.3c-1.9,7.1-8.4,10.1-15.2,10.1
	c-9.9,0-16.7-6-16.7-16.3c0-9.3,7.5-16.1,16.5-16.1c11,0,16.4,8.3,16,18.7C110.2,52.3,87.7,52.3,87.7,52.3z M100.2,46.7
	c-0.2-3.4-2.6-6.3-6-6.3c-3.5,0-5.9,2.6-6.5,6.3H100.2z"/>
<g>
	<path class="st4" d="M194,23.1h18.1c12.9,0,20.6,7.9,20.6,20.8c0,13.8-7.9,21.2-20.6,21.2H194V23.1z M205.1,55.8h5.2
		c8.4-0.2,11.6-3.4,11.6-11.9c0-7.7-4.1-11.4-11.6-11.4h-5.2V55.8z"/>
	<path class="st4" d="M251.6,22.5l-9.2,8.7h-7.1l5.7-8.7H251.6z M236.3,65.2V34.6h10v30.6H236.3L236.3,65.2z"/>
	<path class="st4" d="M251.6,44c0.2-4,2.1-6.6,4.8-8.2s6.3-2.2,9.7-2.2c7.3,0,14.3,1.6,14.3,10.2v13.4c0,2.6,0,5.4,1.2,7.9h-10.1
		c-0.4-1-0.5-1.9-0.6-2.9c-2.6,2.8-6.4,3.7-10.1,3.7c-5.8,0-10.4-2.9-10.4-9.2c0-9.9,10.8-9.2,17.8-10.6c1.7-0.4,2.7-1,2.7-2.9
		c0-2.3-2.8-3.1-4.8-3.1c-2.8,0-4.5,1.3-5,3.8C260.9,44,251.6,44,251.6,44z M264.5,59.9c4.8,0,6.4-2.8,6.1-9c-1.4,0.9-4,1.1-6.2,1.7
		c-2.3,0.5-4.1,1.5-4.1,3.9C260.3,58.9,262.3,59.9,264.5,59.9z"/>
</g>
<path class="st4" d="M130.9,65.2h-11.6l-10.2-30.6h10.4l5.6,20.3h0.1l5.7-20.3h10.2L130.9,65.2z"/>
</svg>
